<?xml version="1.0" encoding="utf-8"?>
<!-- Generator: Adobe Illustrator 23.1.1, SVG Export Plug-In . SVG Version: 6.00 Build 0)  -->
<svg version="1.1" id="Layer_1" xmlns="http://www.w3.org/2000/svg" xmlns:xlink="http://www.w3.org/1999/xlink" x="0px" y="0px"
	 viewBox="0 0 800 800" style="enable-background:new 0 0 800 800;" xml:space="preserve">
<style type="text/css">
	.st0{fill:#3C3E40;}
	.st1{fill:#6F7275;}
	.st2{fill:#2C2C42;}
	.st3{fill:#85462B;}
	.st4{fill:#5C311E;}
	.st5{fill:#22272E;}
	.st6{fill:#617085;}
	.st7{fill:#515D6E;stroke:#515D6E;stroke-miterlimit:10;}
	.st8{fill:#515D6E;}
	.st9{fill:#8C4C09;}
	.st10{fill:#C28C4B;}
	.st11{fill:#EBE6E2;}
	.st12{fill:#D8826C;}
	.st13{fill:#FFFFFF;}
	.st14{fill:#F5F0EB;}
	.st15{fill:#F5AE94;}
	.st16{fill:#DD876C;}
	.st17{fill:#0D0D0C;}
	.st18{fill:#5C8696;}
	.st19{fill:#242422;}
	.st20{fill:#F0A98F;}
	.st21{opacity:0.4;fill:#EAECED;}
	.st22{fill:#D5503B;}
	.st23{fill:#838792;}
	.st24{fill:#B87744;}
	.st25{fill:#74B502;}
</style>
<g>
	<g>
		<g>
			<g>
				<rect x="369.88" y="518.16" class="st0" width="22.47" height="74.9"/>
			</g>
			<g>
				<g>
					<g>
						<g>
							<path class="st1" d="M429.8,671.7h3.74v-18.03c0-3.89-0.48-7.29-3.13-9.82c-2.62-2.49-5.91-6.28-10.69-7.04
								c-3.07-0.49-5.13-2.56-5.66-2.56h-21.71v7.49h21.94c2.32,0,9.69,2.12,12.97,5.26c1.31,1.24,2.54,4.64,2.54,6.67V671.7z"/>
						</g>
					</g>
					<g>
						<path class="st2" d="M441.08,677.92c0,0.42-0.03,0.84-0.08,1.25c-0.61,4.92-4.82,8.74-9.91,8.74c-5.09,0-9.3-3.81-9.91-8.74
							c-0.05-0.41-0.08-0.83-0.08-1.25c0-5.52,4.47-9.99,9.99-9.99C436.62,667.93,441.08,672.4,441.08,677.92z"/>
						<path class="st1" d="M441.08,677.93c0,0.42-0.03,1.26-0.08,1.26h-19.82c-0.05,0-0.08-0.84-0.08-1.26
							c0-5.52,4.47-9.99,9.99-9.99C436.62,667.94,441.08,672.42,441.08,677.93z"/>
					</g>
				</g>
				<g>
					<g>
						<g>
							<path class="st1" d="M328.69,671.7h-7.49v-18.03c0-3.89,1.86-7.29,4.52-9.82c2.61-2.49,6.6-6.28,11.38-7.04
								c3.07-0.49,5.82-2.56,6.35-2.56h26.44v7.49h-26.67c-2.32,0-9.2,2.12-12.47,5.26c-1.29,1.24-2.05,4.64-2.05,6.67V671.7z"/>
						</g>
					</g>
					<g>
						<path class="st2" d="M316.42,677.92c0,0.42,0.03,0.84,0.08,1.25c0.61,4.92,4.82,8.74,9.91,8.74c5.1,0,9.3-3.81,9.91-8.74
							c0.05-0.41,0.08-0.83,0.08-1.25c0-5.52-4.47-9.99-9.99-9.99C320.89,667.93,316.42,672.4,316.42,677.92z"/>
						<path class="st1" d="M316.42,677.93c0,0.42,0.03,1.26,0.08,1.26h19.82c0.05,0,0.08-0.84,0.08-1.26c0-5.52-4.47-9.99-9.99-9.99
							C320.89,667.94,316.42,672.42,316.42,677.93z"/>
					</g>
				</g>
			</g>
			<g>
				<rect x="377.37" y="641.74" class="st1" width="7.49" height="29.96"/>
				<g>
					<path class="st2" d="M388.74,677.92c0,0.42-0.03,0.84-0.07,1.25c-0.61,4.92-4.82,8.74-9.91,8.74c-5.09,0-9.3-3.81-9.91-8.74
						c-0.05-0.41-0.08-0.83-0.08-1.25c0-5.52,4.48-9.99,9.99-9.99C384.27,667.93,388.74,672.4,388.74,677.92z"/>
					<path class="st1" d="M388.74,677.93c0,0.42-0.03,1.26-0.07,1.26h-19.82c-0.05,0-0.08-0.84-0.08-1.26
						c0-5.52,4.48-9.99,9.99-9.99C384.27,667.94,388.74,672.42,388.74,677.93z"/>
				</g>
			</g>
			<rect x="362.39" y="581.83" class="st1" width="33.7" height="63.66"/>
		</g>
		<rect x="336.18" y="510.67" class="st1" width="82.39" height="14.98"/>
		<rect x="366.14" y="458.24" class="st1" width="26.21" height="37.45"/>
		<g>
			<g>
				<g>
					<g>
						<path class="st1" d="M313.71,491.95v11.23h-29.51c-6.14,0-11.49-1.28-15.48-5.46c-3.93-4.12-6.07-9.58-7.26-17.12
							c-0.78-4.85-0.18-8.36-0.18-9.19v-43.12h11.23v43.49c0,3.66-0.23,13.13,4.72,18.31c1.97,2.05,3.75,1.87,6.96,1.87H313.71z"/>
					</g>
				</g>
				<g>
					<path class="st3" d="M290.02,430.39v2.37c0,5.23-4.23,9.46-9.45,9.46h-28.09c-5.22,0-9.45-4.23-9.45-9.46v-2.37
						c0-5.21,4.21-9.43,9.4-9.45h28.15c0.16,0,0.32,0,0.49,0.01c1.43,0.08,2.78,0.47,3.98,1.11c0.15,0.08,0.29,0.15,0.44,0.25
						C288.2,423.96,290.02,426.96,290.02,430.39z"/>
				</g>
			</g>
			<g>
				<g>
					<g>
						<path class="st1" d="M444.78,491.95v11.23h28.35c6.13,0,11.49-1.28,15.48-5.46c3.94-4.12,6.65-9.58,7.85-17.12
							c0.77-4.85,0.75-8.36,0.75-9.19v-43.12h-11.23v43.49c0,3.66-0.36,13.13-5.31,18.31c-1.96,2.05-4.32,1.87-7.54,1.87H444.78z"/>
					</g>
				</g>
				<g>
					<path class="st3" d="M515.94,429.35c0-5.22-5.48-12.3-10.71-12.3H477.5c-5.22,0-10.25,7.08-10.25,12.3v2.86
						c0,5.22,5.03,7.31,10.25,7.31h27.72c5.23,0,10.71-2.09,10.71-7.31V429.35z"/>
				</g>
			</g>
		</g>
		<g>
			<path class="st4" d="M448.53,475.01c0,5.22-4.23,9.45-9.45,9.45h-123.4c-5.22,0-9.45-4.23-9.45-9.45V314.16
				c0-5.22,4.23-9.45,9.45-9.45h123.4c5.22,0,9.45,4.23,9.45,9.45V475.01z"/>
		</g>
		<g>
			<path class="st3" d="M474.74,503.78c0,5.88-4.77,10.64-10.64,10.64H301.88c-5.88,0-10.64-4.77-10.64-10.64v-8.67
				c0-5.88,4.77-10.64,10.64-10.64H464.1c5.88,0,10.64,4.77,10.64,10.64V503.78z"/>
		</g>
	</g>
	<g>
		<g>
			<g>
				<g>
					<g>
						<g>
							<path class="st5" d="M459.66,685.19l-46.42-5.26c2.21-3.57,3.32-13.65,3.9-21.52c0.78-10.9,0.48-24.16,0.48-24.16
								s30.66-3.74,30.66,0c0,7.49,1.76,16.07,3.88,24.16C455.45,670.96,459.66,685.19,459.66,685.19z"/>
							<path class="st5" d="M460.54,688.43c0,0.23-0.02-0.6-0.03-0.37c-0.1,2.55-0.76,2.37-1.9,6.11h-48.72
								c-1.12-3.74-1.8-3.57-1.89-6.11c-0.02-0.23-0.02,0.07-0.02-0.17c0-11.6,11.76-20.76,26.28-20.76
								C448.77,667.13,460.54,676.82,460.54,688.43z"/>
						</g>
						<path class="st6" d="M417.13,656.72c0.78-11.23,0.48-22.47,0.48-22.47s30.66-3.74,30.66,0c0,7.49,1.76,14.98,3.88,22.47
							H417.13z"/>
					</g>
					<path class="st7" d="M460.51,684.81c-0.1,0-0.76,7.49-1.9,7.49h-48.72c-1.12,0-1.8-7.49-1.89-7.49H460.51z"/>
				</g>
				<path class="st8" d="M443.07,670.97c-3.62-5.04-12.27-3.27-16.33,0.12c-0.61,0.52,0.06,1.33,0.7,1.22
					c2.53-0.44,4.57-1.77,7.23-1.89c2.84-0.11,5.01,1.59,7.69,1.79C442.95,672.25,443.42,671.46,443.07,670.97z"/>
				<path class="st8" d="M441.56,676.19c-4.03-2.77-11.98-3.78-15.53,0.34c-0.49,0.56-0.03,1.53,0.76,1.3
					c2.35-0.66,5.13-1,7.55-0.97c2.48,0.03,4.5,1.78,6.97,1.21C442.24,677.86,442.25,676.66,441.56,676.19z"/>
			</g>
			<g>
				<g>
					<path class="st5" d="M465.88,479.98c-1.84-0.94-40.02-23.52-40.02-23.52l-35.93,0.44v33.98
						c11.84,21.78,33.06,20.93,40.84,25.69c-6.66,30.45-13.79,106.41-17.58,135.91h41.61C468.33,578.42,503.45,499.14,465.88,479.98
						z"/>
				</g>
			</g>
		</g>
		<g>
			<g>
				<g>
					<g>
						<g>
							<path class="st5" d="M301.06,685.19l46.43-5.26c-2.21-3.57-3.33-13.65-3.9-21.52c-0.77-10.9-0.48-24.16-0.48-24.16
								s-30.66-3.74-30.66,0c0,7.49-1.75,16.07-3.87,24.16C305.28,670.96,301.06,685.19,301.06,685.19z"/>
							<path class="st5" d="M300.19,688.43c0,0.23,0.01-0.6,0.02-0.37c0.09,2.55,0.77,2.37,1.9,6.11h48.72
								c1.13-3.74,1.8-3.57,1.9-6.11c0.01-0.23,0.02,0.07,0.02-0.17c0-11.6-11.76-20.76-26.28-20.76
								C311.95,667.13,300.19,676.82,300.19,688.43z"/>
						</g>
						<path class="st6" d="M343.59,656.72c-0.77-11.23-0.48-22.47-0.48-22.47s-30.66-3.74-30.66,0c0,7.49-1.75,14.98-3.87,22.47
							H343.59z"/>
					</g>
					<path class="st7" d="M300.21,684.81c0.09,0,0.77,7.49,1.9,7.49h48.72c1.13,0,1.8-7.49,1.9-7.49H300.21z"/>
				</g>
				<path class="st8" d="M317.66,670.97c3.61-5.04,12.27-3.27,16.33,0.12c0.62,0.52-0.07,1.33-0.71,1.22
					c-2.53-0.44-4.58-1.77-7.22-1.89c-2.84-0.11-5,1.59-7.7,1.79C317.77,672.25,317.3,671.46,317.66,670.97z"/>
				<path class="st8" d="M319.16,676.19c4.03-2.77,11.98-3.78,15.52,0.34c0.49,0.56,0.04,1.53-0.76,1.3c-2.35-0.66-5.14-1-7.55-0.97
					c-2.48,0.03-4.5,1.78-6.97,1.21C318.48,677.86,318.47,676.66,319.16,676.19z"/>
			</g>
			<g>
				<g>
					<path class="st5" d="M294.28,479.98c1.83-0.94,40.02-23.52,40.02-23.52l35.93,0.44v33.98c-11.84,21.78-33.06,20.93-40.84,25.69
						c6.66,30.45,13.8,106.41,17.58,135.91h-41.61C291.83,578.42,256.71,499.14,294.28,479.98z"/>
				</g>
			</g>
		</g>
		<path class="st5" d="M430.74,488.63c-2.08,10.45-89.56,6.97-98.93,2.32c-6.44-3.19-3.04-33.14-0.28-51.61
			c1.26-8.43,2.39-14.46,2.39-14.46l92.39,0.92c0,0,0.6,4.7,1.36,11.58C429.44,453.45,432.21,481.32,430.74,488.63z"/>
		<g>
			<path class="st9" d="M417.81,441.82c3.28-1.35,6.57-2.91,9.85-4.74c-0.76-6.17-1.36-10.39-1.36-10.39l-11.69-0.1
				C415.51,431.7,416.62,436.77,417.81,441.82z"/>
			<path class="st9" d="M405.57,444.98c-3.4,0.89-6.8,1.58-10.14,2.05c-10.94,1.64-21.42,1.28-30.92-0.09
				c-2.96-0.42-5.86-0.95-8.62-1.54c0.64-6.75,0.79-13.53,1.15-20.29l43.88,0.39C402.23,432.06,403.74,438.56,405.57,444.98z"/>
			<path class="st9" d="M344.09,425.95l-10.17-0.08c0,0-1.13,5.41-2.39,12.96c3.12,1.24,6.77,2.59,10.84,3.89
				C342.1,437.42,343.05,431.54,344.09,425.95z"/>
			<path class="st10" d="M395.43,447.03c-10.94,1.64-21.42,1.28-30.92-0.09l-1.46-18.76l30.87-2.43L395.43,447.03z"/>
		</g>
		<g>
			<path class="st11" d="M316.6,282.19c0,0,65.99-12.37,128.68-1.64c0,0-14.02,119.6-18.97,145.17c0,0-49.49,12.37-92.39-0.83
				C333.92,424.89,315.77,305.29,316.6,282.19z"/>
			<path class="st12" d="M403.59,274.6c0,11.02-11.53,19.96-22.47,19.96l0,0c-10.93,0-22.47-8.94-22.47-19.96v-25.24
				c0-11.03,11.54-19.96,22.47-19.96l0,0c10.93,0,22.47,8.93,22.47,19.96V274.6z"/>
			<g>
				<path class="st13" d="M382.3,310.22c0,1.57-1.27,2.85-2.85,2.85c-1.57,0-2.84-1.28-2.84-2.85c0-1.57,1.27-2.84,2.84-2.84
					C381.02,307.38,382.3,308.65,382.3,310.22z"/>
				<path class="st13" d="M382.3,339.8c0,1.57-1.27,2.84-2.85,2.84c-1.57,0-2.84-1.27-2.84-2.84c0-1.57,1.27-2.84,2.84-2.84
					C381.02,336.96,382.3,338.23,382.3,339.8z"/>
				<path class="st13" d="M382.08,398.95c0,1.57-1.26,2.85-2.84,2.85c-1.57,0-2.85-1.28-2.85-2.85c0-1.57,1.27-2.84,2.85-2.84
					C380.82,396.11,382.08,397.38,382.08,398.95z"/>
				<path class="st13" d="M382.3,369.26c0,1.57-1.27,2.85-2.85,2.85c-1.57,0-2.84-1.27-2.84-2.85c0-1.57,1.27-2.84,2.84-2.84
					C381.02,366.42,382.3,367.69,382.3,369.26z"/>
			</g>
			<g>
				<path class="st14" d="M359.49,262.39l-15.67,16.5l13.2,34.64l22.27-18.97C379.28,294.56,361.96,276.41,359.49,262.39z"/>
				<path class="st14" d="M399.08,262.39l15.68,16.5l-13.2,34.64l-22.27-18.97C379.28,294.56,396.6,276.41,399.08,262.39z"/>
			</g>
		</g>
		<g>
			<g>
				<path class="st15" d="M428.5,221.32c0.12,16.67-17.66,30.19-29.47,36.5c-11.79,6.32-22.12,4.26-22.12,4.26
					c-46.91-10.67-43.6-32.98-46.23-51.47c-1.29-9.1-2.52-26.08,1.51-47.06c0.54-2.85,1.43-5.44,2.56-7.81
					c7.26-15.17,24.44-21.03,24.44-21.03c10.25-3.58,21.97-4.37,32.6-2.42c15.38,2.83,27.47,10.78,31.36,26.52
					c1.25,5.07,1.95,10.29,2.59,15.47c1.34,10.69,2.04,21.45,2.43,32.21C428.35,211.42,428.45,216.36,428.5,221.32z"/>
			</g>
			<path class="st16" d="M379.21,174.74c0,0-3.61-3.15-3.47,9.06c0.14,12.22,1.68,25.01,1.68,25.01s-8.44-4.19-5.28,2.39
				c1.7,3.56,5.27,5.19,8.96,5.91c3.22,0.64,5.47-0.59,7.41-2.76c0.9-0.99,5.57-6.41,3.89-7.9c-0.81-0.71-5.09,1.4-6.2,1.76
				C386.21,208.22,385.11,171.63,379.21,174.74z"/>
			<path class="st17" d="M393.26,166.14c0,0,21.26-4.27,27.94,11.37c0,0-23.76-7.14-28.27-3.59L393.26,166.14z"/>
			<path class="st17" d="M367.7,167.91c0,0-20.95-5.59-28.58,9.6c0,0,24.15-5.65,28.43-1.82L367.7,167.91z"/>
			<g>
				<path class="st13" d="M344.17,192.74c0.41,6.11,6.21,10.69,12.96,10.24c6.75-0.45,11.89-5.77,11.48-11.88
					c-0.41-6.11-6.21-10.69-12.96-10.24C348.9,181.32,343.76,186.63,344.17,192.74z"/>
				<g>
					<path class="st18" d="M364.57,190.99c0.36,5.42-2.76,10.04-6.99,10.31c-4.22,0.29-7.94-3.87-8.29-9.29
						c-0.37-5.41,2.76-10.02,6.98-10.3C360.49,181.43,364.21,185.58,364.57,190.99z"/>
					<path class="st17" d="M362.36,191.14c0.26,3.85-1.96,7.14-4.97,7.33c-2.99,0.2-5.63-2.75-5.88-6.6
						c-0.26-3.84,1.96-7.12,4.96-7.32C359.47,184.34,362.11,187.3,362.36,191.14z"/>
					<path class="st13" d="M362.26,184.53c0.07,1.05-1.13,1.99-2.67,2.08c-1.55,0.11-2.86-0.66-2.93-1.7
						c-0.07-1.05,1.13-1.98,2.68-2.08C360.88,182.72,362.2,183.49,362.26,184.53z"/>
				</g>
			</g>
			<g>
				<path class="st13" d="M393.11,191.36c0.42,6.19,6.23,10.84,12.97,10.38c6.75-0.45,11.89-5.83,11.48-12.02
					c-0.42-6.19-6.23-10.83-12.98-10.38C397.84,179.79,392.7,185.18,393.11,191.36z"/>
				<g>
					<path class="st18" d="M411.78,189.71c0.36,5.42-2.77,10.04-6.98,10.32c-4.22,0.28-7.94-3.87-8.29-9.29
						c-0.36-5.41,2.76-10.02,6.98-10.31C407.7,180.15,411.41,184.31,411.78,189.71z"/>
					<path class="st17" d="M409.56,189.86c0.26,3.85-1.96,7.13-4.96,7.34c-2.99,0.2-5.64-2.76-5.89-6.61
						c-0.26-3.84,1.96-7.12,4.96-7.32C406.67,183.06,409.3,186.03,409.56,189.86z"/>
					<path class="st13" d="M409.47,183.25c0.07,1.05-1.13,1.98-2.67,2.08c-1.55,0.1-2.86-0.67-2.92-1.71
						c-0.07-1.05,1.12-1.98,2.67-2.08C408.09,181.44,409.4,182.21,409.47,183.25z"/>
				</g>
			</g>
			<path class="st19" d="M443.85,125.57c-2.75,3.85-7.36,7.59-12.17,8.64c4-4.22,7.82-9.92,7.18-15.88
				c-0.03-0.26-0.36-0.47-0.62-0.34c-0.82,0.44-1.46,1.08-2.14,1.71c-3.65,3.34-9.61,3.21-13.99,1.64c-7.69-2.74-14-8.11-20.9-12.29
				c-7.53-4.56-15.95-7.22-24.83-6.82c-4.78,0.2-9.5,1.21-14,2.86c-11,4.04-24.12,11.84-27.06,24.11c-0.41,1.69-0.57,3.42-0.55,5.16
				c0.01,1.09,0.94,4.34,0.47,5.2c-0.26,0.42,0.27,0.89,0.59,0.65c0.19,0.01,0.38-0.08,0.45-0.26c0.08-0.21,0.14-0.33,0.17-0.44
				c5.18-4.19,13.85,12.21,17.01,14.86c12.08,10.11,29.43,11.51,43.8,7.6c16.13-4.4,33.91-15.52,43.2-29.04
				c1.53-2.22,3.03-4.46,4.15-6.92C444.8,125.53,444.14,125.16,443.85,125.57z"/>
			<g>
				<g>
					<path class="st20" d="M426.56,186.5c0,0,10.25-23.21,18.71-4.94c6.73,14.54-4.48,28.79-13.56,27.79
						C422.63,208.36,426.56,186.5,426.56,186.5z"/>
					<path class="st12" d="M427.18,190.09c0,0,7.6-14.89,11.55-9.53c3.96,5.35,3.92,12.68,3.92,12.68s-2.83-7.75-8.34-2.66
						c0,0,7.39,12.13-4.94,9.61C429.36,200.19,424.01,196.8,427.18,190.09z"/>
				</g>
			</g>
			<path class="st19" d="M347.31,137.47c0,0,1.18,18.99-6.71,28.18c-7.89,9.2-8.64,27.94-8.64,27.94s-28.88-36.85,3.97-58.31
				C335.93,135.28,342.5,132.65,347.31,137.47z"/>
			<path class="st19" d="M410.83,144.92c0,0,13.36,17.79,16.21,43.36c0,0,18.83-28.04,0.87-51.69
				C427.91,136.6,408.2,128.28,410.83,144.92z"/>
			<g>
				<g>
					<path class="st20" d="M332.59,190c0,0-10.25-23.21-18.71-4.94c-6.74,14.55,4.48,28.8,13.56,27.8
						C336.51,211.87,332.59,190,332.59,190z"/>
					<path class="st12" d="M331.96,193.59c0,0-7.6-14.88-11.55-9.53c-3.95,5.34-3.91,12.68-3.91,12.68s2.83-7.75,8.34-2.66
						c0,0-7.38,12.14,4.94,9.62C329.79,203.7,335.14,200.3,331.96,193.59z"/>
				</g>
			</g>
			<g>
				<g>
					<path class="st21" d="M363.75,179.96c-4.29-0.66-8.58-0.82-12.54-0.68c-2.57,4.28-4.93,8.69-6.85,13.3
						c-1.38,3.3-2.67,6.87-3.39,10.51c3.93,3.65,9.14,4.76,14.32,4.8C357.31,198.43,358.64,187.91,363.75,179.96z"/>
					<path class="st21" d="M417.26,178.96c-4.33-0.24-8.62,0.02-12.55,0.54c-2.15,4.51-4.07,9.13-5.54,13.9
						c-1.05,3.42-2,7.1-2.36,10.8c4.27,3.25,9.56,3.84,14.72,3.39C412.64,197.97,412.95,187.37,417.26,178.96z"/>
				</g>
				<path class="st4" d="M427.74,197.16c4.17-12.25,2.96-17.48,2.8-18.04l-0.27-1l-0.96-0.38c-0.76-0.3-18.57-7.24-37.78,1.45
					c-2.07,0.93-4.06,2.04-5.89,3.28l0.03-0.37l-7.1,0.28l-0.11-0.32l-0.97-0.52c-2.07-1.14-4.24-2.14-6.42-2.97
					c-19.74-7.44-37.23,0.66-37.96,1l-0.94,0.45l-0.21,1.01c-0.11,0.56-0.99,5.85,3.96,17.82c1.78,4.32,5.14,7.44,9.98,9.25
					c5.86,2.22,11.84,1.67,12.12,1.64c13.92-1.53,16.38-8.24,18-12.68c0.09-0.25,0.18-0.49,0.26-0.73c1.16-3.06,1.74-5.76,2.03-7.92
					c1.34-0.57,3.4-0.87,6.28,0.13c0.38,2.27,1.16,5.27,2.7,8.7c0.1,0.23,0.2,0.46,0.31,0.7c1.91,4.33,4.79,10.87,18.78,11.51
					c0.28,0,6.28,0.16,12-2.42C423.09,204.91,426.23,201.59,427.74,197.16z M357.6,205.65c-0.06,0-5.3,0.47-10.24-1.39
					c-3.72-1.4-6.28-3.75-7.61-6.97c-3.27-7.92-3.74-12.53-3.77-14.42c3.97-1.55,18.2-6.22,33.62-0.4c1.65,0.62,3.27,1.35,4.85,2.17
					c0.02,1.71-0.21,5.46-2.03,10.27c-0.09,0.24-0.19,0.49-0.28,0.76C370.63,199.75,368.94,204.4,357.6,205.65z M416.68,203.27
					c-4.81,2.17-10.08,2.05-10.13,2.05c-11.39-0.51-13.39-5.04-15.15-9.04c-0.11-0.25-0.22-0.5-0.33-0.74
					c-2.12-4.68-2.59-8.4-2.68-10.12c1.53-0.92,3.09-1.75,4.7-2.48c15.01-6.79,29.51-3.05,33.58-1.75c0.1,1.88-0.08,6.51-2.84,14.63
					C422.7,199.13,420.29,201.63,416.68,203.27z"/>
			</g>
			<path class="st22" d="M358.89,221.68c0,0,26.03,27.08,42.7-4.16C401.58,217.52,387.09,232.78,358.89,221.68z"/>
		</g>
		<g>
			<path class="st11" d="M316.88,283.78c-2.87,0.24-73.09,45.88-79.48,106.04c0,0,10.96,35.7,91.37-65.26
				C328.76,324.56,328.76,282.76,316.88,283.78z"/>
			<path class="st11" d="M336.02,382.46c-55.39-36.24-98.63,7.36-98.63,7.36c-7.18,13.11,67.78,14.84,98.63,11.76V382.46z"/>
			<path class="st15" d="M316.19,403.86c0,0,23.22-47.72,59.76-0.82L316.19,403.86z"/>
		</g>
		<g>
			<path class="st11" d="M445.27,283.66c0,0,28.11,45.14,53.16,60.92c28.12,17.71,74.21,35.51,74.21,35.51s18.34,18.24-0.27,20.72
				c-46.86,6.25-112.47-1.04-131.22-41.66C422.4,318.54,418.15,310.23,445.27,283.66z"/>
			<g>
				<path class="st5" d="M584.28,403.07c-2.77-13.01-11.85-22.55-22.64-22.55c-10.79,0-19.87,9.55-22.64,22.55H584.28z"/>
				<path class="st20" d="M549.3,392.33c0,2.96-3.13,5.37-6.98,5.37s-6.98-2.4-6.98-5.37c0-2.97,3.13-5.37,6.98-5.37
					S549.3,389.36,549.3,392.33z"/>
				<path class="st20" d="M558.96,380.51c0,4.28-2.12,7.75-4.73,7.75c-2.62,0-4.74-3.47-4.74-7.75c0-4.28,2.12-7.76,4.74-7.76
					C556.84,372.75,558.96,376.23,558.96,380.51z"/>
				<path class="st20" d="M572.64,381.06c-1.47,4.02-4.65,6.55-7.1,5.66c-2.46-0.9-3.27-4.89-1.8-8.91c1.46-4.02,4.64-6.56,7.1-5.66
					C573.31,373.05,574.11,377.04,572.64,381.06z"/>
				<path class="st20" d="M583.91,391.61c-2.76,3.27-6.62,4.56-8.62,2.87c-2-1.69-1.38-5.71,1.38-8.98
					c2.77-3.28,6.63-4.55,8.63-2.87C587.3,384.32,586.67,388.35,583.91,391.61z"/>
				<path class="st20" d="M587.22,402.21c-4.09,1.28-8.03,0.28-8.81-2.22c-0.78-2.5,1.92-5.56,6-6.83c4.09-1.26,8.03-0.27,8.81,2.23
					C593.99,397.9,591.3,400.95,587.22,402.21z"/>
			</g>
		</g>
	</g>
	<g>
		<g>
			<polygon class="st23" points="162.29,697 221.78,429 207.49,423.95 146.88,697 			"/>
			<polygon class="st23" points="635.82,697 576.33,429 590.61,423.95 651.22,697 			"/>
		</g>
		<rect x="102" y="401.07" class="st24" width="594.11" height="29.02"/>
	</g>
	<g>
		<path class="st5" d="M500.68,383.18c0,3.95-3.21,7.16-7.17,7.16H358.02c-3.96,0-7.17-3.21-7.17-7.16v-74.12
			c0-3.96,3.21-7.17,7.17-7.17h135.48c3.96,0,7.17,3.21,7.17,7.17V383.18z"/>
		<path class="st5" d="M338.81,389.36c0,0.17-0.02,0.33-0.02,0.5c0,6.24,5.06,11.3,11.3,11.3h151.36c6.24,0,11.3-5.06,11.3-11.3
			c0-0.17-0.02-0.33-0.02-0.5H338.81z"/>
		<path class="st25" d="M434.61,346.44c0,4.88-3.96,8.85-8.84,8.85c-4.89,0-8.84-3.97-8.84-8.85c0-4.89,3.95-8.84,8.84-8.84
			C430.65,337.6,434.61,341.56,434.61,346.44z"/>
	</g>
</g>
</svg>
